<svg xmlns="http://www.w3.org/2000/svg" version="1.1" xmlns:xlink="http://www.w3.org/1999/xlink" xmlns:svgjs="http://svgjs.com/svgjs" width="1440" height="560" preserveAspectRatio="none" viewBox="0 0 1440 560"><g mask="url(&quot;#SvgjsMask1039&quot;)" fill="none"><rect width="1440" height="560" x="0" y="0" fill="rgba(58, 12, 163, 1)"></rect><path d="M0,430.138C99.146,421.669,204.536,501.938,291.53,453.629C378.338,405.424,394.316,288.53,425.039,194.109C452.701,109.094,482.267,20.522,460.685,-66.236C439.962,-149.539,364.356,-202.173,309.943,-268.567C253.72,-337.17,215.759,-424.147,135.836,-462.614C50.089,-503.884,-49.777,-506.335,-142.847,-486.493C-240.512,-465.671,-327.097,-414.47,-401.644,-348.026C-484.204,-274.44,-594.869,-195.839,-593.006,-85.261C-591.104,27.628,-439.291,76.497,-392.757,179.366C-345.946,282.847,-421.122,445.204,-325.395,506.325C-229.562,567.513,-113.288,439.815,0,430.138" fill="#2c097c"></path><path d="M1440 876.5989999999999C1518.124 890.227 1594.817 943.7370000000001 1669.537 917.1659999999999 1746.586 889.767 1807.253 816.615 1829.762 737.998 1851.48 662.145 1803.101 587.282 1786.0430000000001 510.247 1770.488 440.002 1776.629 363.212 1733.9470000000001 305.293 1689.82 245.413 1621.003 207.464 1549.041 188.64 1478.3220000000001 170.14100000000002 1401.594 171.72500000000002 1334.534 200.815 1271.195 228.291 1240.686 296.34 1190.779 344.048 1134.2359999999999 398.101 1048.674 426.43100000000004 1021.7090000000001 499.859 993.3779999999999 577.005 999.031 672.326 1045.275 740.265 1090.464 806.655 1180.83 818.94 1256.74 845.158 1316.534 865.81 1377.681 865.7280000000001 1440 876.5989999999999" fill="#480fca"></path></g><defs><mask id="SvgjsMask1039"><rect width="1440" height="560" fill="#ffffff"></rect></mask></defs></svg>