<svg xmlns="http://www.w3.org/2000/svg" viewBox="0 0 447.13 577.18"><defs><style>.cls-1{font-size:110.15px;font-family:QuicksandBold-Regular, Quicksand;}.cls-1,.cls-4{fill:#7209b7;}.cls-2,.cls-3{fill:none;}.cls-2,.cls-3,.cls-4{stroke:#7209b7;stroke-miterlimit:10;}.cls-2{stroke-width:20px;}.cls-3{stroke-linecap:round;stroke-width:15px;}</style></defs><title>Asset 41</title><g id="Layer_2" data-name="Layer 2"><g id="Layer_6" data-name="Layer 6"><text class="cls-1" transform="translate(1.51 556.47)">MeGuia!</text><circle class="cls-2" cx="223.56" cy="223.56" r="213.56"/><line class="cls-3" x1="65.62" y1="228.49" x2="255.2" y2="37.34"/><line class="cls-3" x1="188.84" y1="39.97" x2="408.2" y2="261.55"/><line class="cls-3" x1="298.52" y1="295.8" x2="408.2" y2="186.01"/><line class="cls-3" x1="94.77" y1="92.16" x2="352.81" y2="352.49"/><line class="cls-3" x1="220.83" y1="228.49" x2="95.24" y2="352.49"/><line class="cls-3" x1="158.03" y1="300.62" x2="261.39" y2="406.36"/><path class="cls-4" d="M147.56,213.79c-10,0-18.38,9-17.36,19.56a106.73,106.73,0,0,0,6,11.12,104.67,104.67,0,0,0,11.95,15.73,94.87,94.87,0,0,0,16.72-27.08C165.77,222.69,157.44,213.8,147.56,213.79Zm0,23.38a8.68,8.68,0,1,1,8.68-8.68A8.68,8.68,0,0,1,147.54,237.17Z"/></g></g></svg>